<svg xmlns="http://www.w3.org/2000/svg" width="21" height="21" viewBox="0 0 21 21">
  <g id="Grupo_11488" data-name="Grupo 11488" transform="translate(-28 -467)">
    <path id="Caminho_30087" data-name="Caminho 30087" d="M11,.5A10.5,10.5,0,1,0,21.5,11,10.5,10.5,0,0,0,11,.5Zm0,19.219A8.719,8.719,0,1,1,19.719,11,8.72,8.72,0,0,1,11,19.719Zm.131-12.485a2.056,2.056,0,0,1,2.18,1.955.187.187,0,0,0,.188.173h1.329a.11.11,0,0,0,.11-.11A3.509,3.509,0,0,0,11.124,5.8c-2.576,0-4.062,1.739-4.062,4.613v1.226c0,2.852,1.486,4.568,4.062,4.568,2.2,0,3.813-1.378,3.813-3.314a.11.11,0,0,0-.11-.11H13.5a.189.189,0,0,0-.187.171,2.014,2.014,0,0,1-2.18,1.823c-1.53,0-2.393-1.123-2.393-3.131V10.409C8.738,8.37,9.6,7.234,11.131,7.234Z" transform="translate(27.5 466.5)" fill="#00adee"/>
  </g>
</svg>
