<svg xmlns="http://www.w3.org/2000/svg" width="21.002" height="17.529" viewBox="0 0 21.002 17.529">
  <g id="Grupo_11507" data-name="Grupo 11507" transform="translate(618 166)">
    <path id="Caminho_30100" data-name="Caminho 30100" d="M21.476,6.689l-.556-.97a.188.188,0,0,0-.256-.068l-1.188.694L17.642,1.278A1.5,1.5,0,0,0,16.215.237H6.059a1.878,1.878,0,0,0-1.786,1.3L2.525,6.347,1.334,5.653a.187.187,0,0,0-.255.068l-.555.968a.185.185,0,0,0,.068.253l1.416.825-.34.938a.668.668,0,0,0-.042.234V17.1a.643.643,0,0,0,.616.666H3.826a.628.628,0,0,0,.6-.523l.18-.884H17.394l.18.884a.63.63,0,0,0,.6.523h1.584a.643.643,0,0,0,.616-.666V8.939a.667.667,0,0,0-.042-.234l-.34-.938,1.413-.825a.187.187,0,0,0,.07-.253ZM5.187,11.555a.937.937,0,1,1,.938-.937A.937.937,0,0,1,5.187,11.555Zm9.094,1.758a.188.188,0,0,1-.187.188H7.906a.188.188,0,0,1-.187-.187V11.344a.188.188,0,0,1,.188-.187h.937a.188.188,0,0,1,.188.188v.844h3.938v-.844a.188.188,0,0,1,.188-.187h.938a.188.188,0,0,1,.188.188Zm2.531-1.758a.937.937,0,1,1,.938-.937A.937.937,0,0,1,16.812,11.555ZM4.156,6.8l1.7-4.685.012-.03.009-.03a.186.186,0,0,1,.178-.129H16.081L17.848,6.8Z" transform="translate(-618.498 -166.237)"/>
  </g>
</svg>
