<svg xmlns="http://www.w3.org/2000/svg" width="18.75" height="16.5" viewBox="0 0 18.75 16.5">
  <g id="Grupo_11488" data-name="Grupo 11488" transform="translate(-99.625 -502.75)">
    <path id="Caminho_30087" data-name="Caminho 30087" d="M383.562,28.359h11.25a.188.188,0,0,0,.188-.187V26.859a.188.188,0,0,0-.188-.187h-11.25a.188.188,0,0,0-.187.188v1.313A.188.188,0,0,0,383.562,28.359Zm-.187,4.781a.188.188,0,0,0,.187.188h11.25a.188.188,0,0,0,.188-.187V31.828a.188.188,0,0,0-.188-.187h-11.25a.188.188,0,0,0-.187.188ZM395.188,21.75H376.812a.188.188,0,0,0-.187.188V23.25a.188.188,0,0,0,.187.188h18.376a.188.188,0,0,0,.187-.187V21.938A.188.188,0,0,0,395.188,21.75Zm0,14.813H376.812a.188.188,0,0,0-.187.188v1.313a.188.188,0,0,0,.187.188h18.376a.188.188,0,0,0,.187-.187V36.75A.188.188,0,0,0,395.188,36.563Zm-18.483-6.4,3.663,2.885a.208.208,0,0,0,.337-.162v-5.77a.207.207,0,0,0-.337-.162L376.7,29.838a.206.206,0,0,0-.059.072.213.213,0,0,0,0,.18A.206.206,0,0,0,376.7,30.162Z" transform="translate(-277 481)" fill="#00adee"/>
  </g>
</svg>
