<svg xmlns="http://www.w3.org/2000/svg" width="54.077" height="34.484" viewBox="0 0 54.077 34.484">
  <g id="Grupo_11488" data-name="Grupo 11488" transform="translate(155.04 -407.8)">
    <path id="Caminho_30087" data-name="Caminho 30087" d="M29.156,36.92V45.2h-.84V38.588L25.364,45.2h-.612L21.8,38.612V45.2h-.84V36.92h.888l3.2,7.176,3.2-7.176Zm6.634,8.364a4.191,4.191,0,0,1-2.112-.54,4.035,4.035,0,0,1-1.5-1.524,4.537,4.537,0,0,1-.54-2.22,4.469,4.469,0,0,1,.54-2.208,3.925,3.925,0,0,1,1.5-1.524,4.339,4.339,0,0,1,4.236,0A3.842,3.842,0,0,1,39.4,38.792,4.469,4.469,0,0,1,39.942,41a4.537,4.537,0,0,1-.54,2.22,3.948,3.948,0,0,1-1.488,1.524A4.215,4.215,0,0,1,35.79,45.284Zm0-.732a3.284,3.284,0,0,0,1.68-.432,3.076,3.076,0,0,0,1.176-1.236A3.967,3.967,0,0,0,39.078,41a3.9,3.9,0,0,0-.432-1.872,3.076,3.076,0,0,0-1.176-1.236,3.483,3.483,0,0,0-3.36,0,3.076,3.076,0,0,0-1.176,1.236A3.9,3.9,0,0,0,32.5,41a3.967,3.967,0,0,0,.432,1.884A3.076,3.076,0,0,0,34.11,44.12,3.284,3.284,0,0,0,35.79,44.552Zm10.573-3.684a2.012,2.012,0,0,1,1.2.72,2.068,2.068,0,0,1,.492,1.368,2.122,2.122,0,0,1-.324,1.152,2.179,2.179,0,0,1-.924.8,3.413,3.413,0,0,1-1.464.288h-2.9V36.812h2.82a2.819,2.819,0,0,1,1.932.588,1.931,1.931,0,0,1,.672,1.524,1.891,1.891,0,0,1-.42,1.272A2.224,2.224,0,0,1,46.363,40.868Zm-3.084-.348h1.956a1.936,1.936,0,0,0,1.308-.4,1.4,1.4,0,0,0,.468-1.116,1.354,1.354,0,0,0-.468-1.092,2,2,0,0,0-1.344-.4h-1.92Zm2,3.972A2.11,2.11,0,0,0,46.7,44.06a1.614,1.614,0,0,0-.024-2.388,2.11,2.11,0,0,0-1.428-.456H43.279v3.276ZM50.175,41a4.469,4.469,0,0,1,.54-2.208,3.867,3.867,0,0,1,1.476-1.524,4.033,4.033,0,0,1,2.088-.552,4.19,4.19,0,0,1,2.4.672,3.74,3.74,0,0,1,1.464,1.872h-.984a2.874,2.874,0,0,0-1.1-1.332,3.168,3.168,0,0,0-1.776-.48,3.261,3.261,0,0,0-1.668.432,3.005,3.005,0,0,0-1.152,1.248,4.382,4.382,0,0,0,0,3.744,3.022,3.022,0,0,0,1.152,1.236,3.521,3.521,0,0,0,3.444-.036,2.883,2.883,0,0,0,1.1-1.32h.984a3.744,3.744,0,0,1-1.464,1.86,4.283,4.283,0,0,1-2.4.66,4.1,4.1,0,0,1-2.088-.54,3.975,3.975,0,0,1-1.476-1.524A4.469,4.469,0,0,1,50.175,41Zm15.462,2.208H61.821L61.089,45.2H60.2l3.06-8.28h.948l3.048,8.28h-.888Zm-.252-.7-1.656-4.536-1.656,4.536ZM74.029,45.2l-2.076-3.5H70.4v3.5h-.84V36.812h2.52a3.008,3.008,0,0,1,2.124.672,2.282,2.282,0,0,1,.732,1.764,2.391,2.391,0,0,1-.528,1.56,2.485,2.485,0,0,1-1.536.828l2.16,3.564ZM70.4,41.012H72.1a2.036,2.036,0,0,0,1.476-.48,1.69,1.69,0,0,0,.5-1.284,1.647,1.647,0,0,0-.48-1.272,2.136,2.136,0,0,0-1.512-.456H70.4Z" transform="translate(-176 397)" fill="#00adee"/>
    <path id="Caminho_30088" data-name="Caminho 30088" d="M50.8,11.3a9.9,9.9,0,1,0,9.9,9.9A9.9,9.9,0,0,0,50.8,11.3Z" transform="translate(-176 397)" fill="none" stroke="#00adee" stroke-linecap="round" stroke-linejoin="round" stroke-width="1"/>
    <path id="Caminho_30089" data-name="Caminho 30089" d="M50.8,19A2.2,2.2,0,1,0,53,21.2,2.2,2.2,0,0,0,50.8,19Z" transform="translate(-176 397)" fill="none" stroke="#00adee" stroke-linecap="round" stroke-linejoin="round" stroke-width="1"/>
    <path id="Caminho_30090" data-name="Caminho 30090" d="M50.8,19V11.3" transform="translate(-176 397)" fill="none" stroke="#00adee" stroke-linecap="round" stroke-linejoin="round" stroke-width="1"/>
    <path id="Caminho_30091" data-name="Caminho 30091" d="M53,21.2l7.425,2.2" transform="translate(-176 397)" fill="none" stroke="#00adee" stroke-linecap="round" stroke-linejoin="round" stroke-width="1"/>
    <path id="Caminho_30092" data-name="Caminho 30092" d="M48.6,21.2l-7.425,2.2" transform="translate(-176 397)" fill="none" stroke="#00adee" stroke-linecap="round" stroke-linejoin="round" stroke-width="1"/>
  </g>
</svg>
